<svg width="12" height="13" viewBox="0 0 12 13" fill="none" xmlns="http://www.w3.org/2000/svg">
<g clip-path="url(#clip0_68_552)">
<path d="M0 10.3C0.000793929 10.9628 0.264441 11.5983 0.73311 12.0669C1.20178 12.5356 1.8372 12.7993 2.5 12.8H9.5C10.1628 12.7993 10.7982 12.5356 11.2669 12.0669C11.7356 11.5983 11.9992 10.9628 12 10.3V5.80005H0V10.3ZM8.5 8.05005C8.64834 8.05005 8.79334 8.09404 8.91668 8.17645C9.04001 8.25886 9.13614 8.37599 9.19291 8.51304C9.24967 8.65008 9.26453 8.80088 9.23559 8.94637C9.20665 9.09185 9.13522 9.22549 9.03033 9.33038C8.92544 9.43527 8.7918 9.5067 8.64632 9.53564C8.50083 9.56458 8.35003 9.54972 8.21299 9.49296C8.07594 9.43619 7.95881 9.34006 7.8764 9.21673C7.79399 9.09339 7.75 8.94839 7.75 8.80005C7.75 8.60114 7.82902 8.41037 7.96967 8.26972C8.11032 8.12907 8.30109 8.05005 8.5 8.05005ZM6 8.05005C6.14834 8.05005 6.29334 8.09404 6.41668 8.17645C6.54001 8.25886 6.63614 8.37599 6.69291 8.51304C6.74968 8.65008 6.76453 8.80088 6.73559 8.94637C6.70665 9.09185 6.63522 9.22549 6.53033 9.33038C6.42544 9.43527 6.2918 9.5067 6.14632 9.53564C6.00083 9.56458 5.85003 9.54972 5.71299 9.49296C5.57594 9.43619 5.45881 9.34006 5.3764 9.21673C5.29399 9.09339 5.25 8.94839 5.25 8.80005C5.25 8.60114 5.32902 8.41037 5.46967 8.26972C5.61032 8.12907 5.80109 8.05005 6 8.05005ZM3.5 8.05005C3.64834 8.05005 3.79334 8.09404 3.91668 8.17645C4.04001 8.25886 4.13614 8.37599 4.19291 8.51304C4.24968 8.65008 4.26453 8.80088 4.23559 8.94637C4.20665 9.09185 4.13522 9.22549 4.03033 9.33038C3.92544 9.43527 3.7918 9.5067 3.64632 9.53564C3.50083 9.56458 3.35003 9.54972 3.21299 9.49296C3.07594 9.43619 2.95881 9.34006 2.8764 9.21673C2.79399 9.09339 2.75 8.94839 2.75 8.80005C2.75 8.60114 2.82902 8.41037 2.96967 8.26972C3.11032 8.12907 3.30109 8.05005 3.5 8.05005Z" fill="#62666A"/>
<path d="M9.5 1.80005H9V1.30005C9 1.16744 8.94732 1.04026 8.85355 0.946495C8.75979 0.852727 8.63261 0.800049 8.5 0.800049C8.36739 0.800049 8.24021 0.852727 8.14645 0.946495C8.05268 1.04026 8 1.16744 8 1.30005V1.80005H4V1.30005C4 1.16744 3.94732 1.04026 3.85355 0.946495C3.75979 0.852727 3.63261 0.800049 3.5 0.800049C3.36739 0.800049 3.24021 0.852727 3.14645 0.946495C3.05268 1.04026 3 1.16744 3 1.30005V1.80005H2.5C1.8372 1.80084 1.20178 2.06449 0.73311 2.53316C0.264441 3.00183 0.000793929 3.63725 0 4.30005L0 4.80005H12V4.30005C11.9992 3.63725 11.7356 3.00183 11.2669 2.53316C10.7982 2.06449 10.1628 1.80084 9.5 1.80005Z" fill="#62666A"/>
</g>
<defs>
<clipPath id="clip0_68_552">
<rect width="12" height="12" fill="white" transform="translate(0 0.800049)"/>
</clipPath>
</defs>
</svg>
