<svg width="11" height="11" viewBox="0 0 11 11" fill="none" xmlns="http://www.w3.org/2000/svg">
<g clip-path="url(#clip0_68_563)">
<path d="M5.00773 6.29843L3.63502 9.79276C3.54289 10.0306 3.27018 10.1438 3.04102 10.0517C2.80498 9.95914 2.68902 9.69331 2.78206 9.45772L3.80139 6.86264C4.19235 6.6376 4.56635 6.30118 4.92477 6.08668L5.00818 6.29843H5.00773ZM10.857 2.71656C10.7044 2.47456 10.4536 2.32056 10.169 2.29397C9.54752 2.25318 9.2881 2.13126 8.82152 1.69631C8.52498 1.44147 8.21835 1.17793 7.86727 1.0496C7.59273 0.949222 7.26318 0.906597 6.88048 0.91943C6.53352 0.932722 6.22231 1.09726 6.01881 1.35301C6.02018 1.35668 7.92823 6.21135 7.92823 6.21135C8.17344 6.33051 8.42919 6.38231 8.72206 6.41393C9.25969 6.46206 9.78127 6.16322 10.0045 5.6586L10.9441 3.52872C11.044 3.25739 11.0119 2.96131 10.8579 2.71701L10.857 2.71656ZM7.95939 10.0517C8.19543 9.95914 8.31139 9.69331 8.21835 9.45772L5.16127 1.67522C5.00131 1.23385 4.59293 0.937305 4.11993 0.918972C3.74227 0.906138 3.40814 0.948763 3.1336 1.04914C2.78252 1.17747 2.47589 1.44101 2.17935 1.69585C1.71231 2.13081 1.45335 2.25272 0.831393 2.29351C0.547226 2.3201 0.296518 2.4741 0.143893 2.7161C-0.0105657 2.96085 -0.0421907 3.25647 0.0682676 3.55531L0.996851 5.65814C1.22006 6.16276 1.73431 6.46618 2.27927 6.41347C2.51989 6.3901 2.74448 6.34106 2.94614 6.26772C3.28623 6.14351 3.60339 5.90564 3.91048 5.67601C4.16439 5.4858 4.42656 5.28964 4.63923 5.21172C4.91927 5.10906 5.3171 5.13518 5.54948 5.16864L7.36585 9.7923C7.45798 10.0302 7.73069 10.1434 7.95985 10.0513L7.95939 10.0517Z" fill="#005C31"/>
</g>
<defs>
<clipPath id="clip0_68_563">
<rect width="11" height="11" fill="white"/>
</clipPath>
</defs>
</svg>
