<svg width="11" height="11" viewBox="0 0 11 11" fill="none" xmlns="http://www.w3.org/2000/svg">
<path d="M1.83345 5.04167H9.16678C11.5849 4.97842 11.5831 1.43779 9.16678 1.375H1.83345C-0.584721 1.43825 -0.582888 4.97888 1.83345 5.04167ZM10.0834 3.20833C10.0834 3.71388 9.67232 4.125 9.16678 4.125H7.33344V2.29167H9.16678C9.67232 2.29167 10.0834 2.70279 10.0834 3.20833ZM9.16678 5.95833H1.83345C-0.584721 6.02158 -0.582888 9.56221 1.83345 9.625H9.16678C11.5849 9.56175 11.5831 6.02113 9.16678 5.95833ZM9.16678 8.70833H4.58344V6.875H9.16678C10.3717 6.897 10.3708 8.68679 9.16678 8.70833Z" fill="#683E08"/>
</svg>
