<svg width="11" height="11" viewBox="0 0 11 11" fill="none" xmlns="http://www.w3.org/2000/svg">
<g clip-path="url(#clip0_68_585)">
<path d="M10.3056 5.03016L5.50002 7.91399L0.694395 5.03016C0.59016 4.96762 0.465349 4.94905 0.34742 4.97853C0.22949 5.00801 0.128103 5.08313 0.0655618 5.18737C0.00302044 5.29161 -0.015552 5.41642 0.0139303 5.53435C0.0434126 5.65227 0.118535 5.75366 0.22277 5.8162L5.26444 8.8412C5.33572 8.88403 5.41732 8.90666 5.50048 8.90666C5.58364 8.90666 5.66524 8.88403 5.73652 8.8412L10.7782 5.8162C10.8824 5.75366 10.9575 5.65227 10.987 5.53435C11.0165 5.41642 10.9979 5.29161 10.9354 5.18737C10.8729 5.08313 10.7715 5.00801 10.6535 4.97853C10.5356 4.94905 10.4108 4.96762 10.3066 5.03016H10.3056Z" fill="#D5473A"/>
<path d="M10.3056 7.12391L5.50002 10.0073L0.694394 7.12391C0.642782 7.09294 0.585575 7.07245 0.526041 7.06359C0.466507 7.05473 0.405811 7.05768 0.347418 7.07228C0.289026 7.08688 0.23408 7.11283 0.185719 7.14867C0.137358 7.1845 0.0965278 7.22951 0.0655604 7.28112C0.0345931 7.33273 0.0140948 7.38994 0.00523583 7.44947C-0.00362312 7.50901 -0.000669191 7.5697 0.013929 7.6281C0.0434112 7.74602 0.118533 7.84741 0.222769 7.90995L5.26444 10.935C5.33572 10.9778 5.41732 11.0004 5.50048 11.0004C5.58364 11.0004 5.66523 10.9778 5.73652 10.935L10.7782 7.90995C10.8824 7.84741 10.9575 7.74602 10.987 7.6281C11.0165 7.51017 10.9979 7.38536 10.9354 7.28112C10.8729 7.17688 10.7715 7.10176 10.6535 7.07228C10.5356 7.0428 10.4108 7.06137 10.3066 7.12391H10.3056Z" fill="#D5473A"/>
<path d="M5.5001 6.77094C5.25287 6.77081 5.01032 6.70348 4.79839 6.57615L0.222391 3.83028C0.154625 3.78953 0.0985541 3.73194 0.0596278 3.66311C0.0207015 3.59429 0.000244141 3.51656 0.000244141 3.43748C0.000244141 3.35841 0.0207015 3.28068 0.0596278 3.21186C0.0985541 3.14303 0.154625 3.08544 0.222391 3.04469L4.79839 0.298818C5.01031 0.171507 5.25288 0.104248 5.5001 0.104248C5.74732 0.104248 5.98989 0.171507 6.20181 0.298818L10.7778 3.04469C10.8456 3.08544 10.9016 3.14303 10.9406 3.21186C10.9795 3.28068 11 3.35841 11 3.43748C11 3.51656 10.9795 3.59429 10.9406 3.66311C10.9016 3.73194 10.8456 3.78953 10.7778 3.83028L6.20181 6.57615C5.98988 6.70348 5.74733 6.77081 5.5001 6.77094ZM1.34943 3.43748L5.27093 5.79011C5.34019 5.83154 5.41939 5.85342 5.5001 5.85342C5.58081 5.85342 5.66 5.83154 5.72927 5.79011L9.65077 3.43748L5.72927 1.08486C5.66 1.04343 5.58081 1.02155 5.5001 1.02155C5.41939 1.02155 5.34019 1.04343 5.27093 1.08486L1.34943 3.43748Z" fill="#D5473A"/>
</g>
<defs>
<clipPath id="clip0_68_585">
<rect width="11" height="11" fill="white"/>
</clipPath>
</defs>
</svg>
